<svg width="121" height="386" viewBox="0 0 121 386" fill="none" xmlns="http://www.w3.org/2000/svg">
<path fill-rule="evenodd" clip-rule="evenodd" d="M59.668 385.69H1.60785V319.335C13.1279 317.952 36.7209 312.976 38.9327 304.128C41.1445 295.281 29.7167 273.716 23.7263 264.039L38.9327 250.215L1.60785 158.976C14.0495 151.603 38.9327 132.158 38.9327 113.357C38.9327 94.5563 22.3439 111.975 14.0495 123.034C7.59826 109.21 -3.92176 77.691 1.60785 62.2081C7.13746 46.7252 22.3436 50.2273 29.2555 53.9137L19.5786 34.56L44.4619 26.2656L34.7851 6.91201L44.4619 0L60.3596 15.8973L76.2572 0L85.9341 6.91201L76.2572 26.2656L101.14 34.56L91.4637 53.9137C98.3755 50.2273 113.582 46.7252 119.111 62.2081C124.641 77.691 113.121 109.21 106.67 123.034C98.3752 111.975 81.7864 94.5563 81.7864 113.357C81.7864 132.158 106.67 151.603 119.111 158.976L81.7864 250.215L96.9928 264.039C91.0024 273.716 79.5746 295.281 81.7864 304.128C83.9983 312.976 107.591 317.952 119.111 319.335V385.69H61.0511H59.668Z" fill="white"/>
</svg>
