<svg width="125" height="228" viewBox="0 0 125 228" fill="none" xmlns="http://www.w3.org/2000/svg">
<path fill-rule="evenodd" clip-rule="evenodd" d="M62.45 227.214H6.18857V177.204L40.124 163.809L43.6962 142.376L24.9424 137.91C24.0493 134.338 22.7991 125.587 24.9424 119.157C27.0857 112.727 35.9565 106.357 40.124 103.975C21.9656 92.961 -10.7714 57.5392 3.50946 3.95485C5.47117 -3.40582 6.67551 0.37254 9.1732 8.20859C11.5238 15.5831 15.0199 26.5514 21.3708 35.2112C34.4701 53.0726 43.6962 55.751 43.6962 55.751L62.45 41.4624V227.214ZM62.4512 227.214H118.713V177.204L84.7772 163.809L81.205 142.376L99.9588 137.911C100.852 134.338 102.102 125.587 99.9588 119.157C97.8155 112.727 88.9447 106.357 84.7772 103.975C102.936 92.9611 135.673 57.5392 121.392 3.95491C119.43 -3.40576 118.226 0.372596 115.728 8.20864C113.377 15.5832 109.881 26.5515 103.53 35.2112C90.4311 53.0726 81.205 55.7511 81.205 55.7511L62.4512 41.4625V227.214Z" fill="#F98500"/>
</svg>
