<svg width="138" height="338" viewBox="0 0 138 338" fill="none" xmlns="http://www.w3.org/2000/svg">
<path fill-rule="evenodd" clip-rule="evenodd" d="M68.1534 337.489H0.0732422V269.408C12.7169 266.166 38.5879 257.153 40.9221 247.038C43.2563 236.923 30.872 214.943 24.388 205.217C29.8994 203.272 40.9221 196.853 40.9221 186.738C40.9221 176.623 13.6895 133.245 0.0732422 112.821H40.9221V97.2593C34.4381 95.6383 19.3306 93.3689 10.7718 97.2593C2.21294 101.15 20.8219 34.0407 31.1962 0C36.0591 11.0227 47.3412 33.0681 53.5658 33.0681H68.1534H69.1273H83.7149C89.9395 33.0681 101.222 11.0227 106.084 0C116.459 34.0407 135.068 101.15 126.509 97.2593C117.95 93.3689 102.843 95.6383 96.3586 97.2593V112.821H137.207C123.591 133.245 96.3586 176.623 96.3586 186.738C96.3586 196.853 107.381 203.272 112.893 205.217C106.409 214.943 94.0243 236.923 96.3586 247.038C98.6928 257.153 124.564 266.166 137.207 269.408V337.489H69.1273H68.1534Z" fill="white"/>
</svg>
