<svg width="138" height="339" viewBox="0 0 138 339" fill="none" xmlns="http://www.w3.org/2000/svg">
<path fill-rule="evenodd" clip-rule="evenodd" d="M68.1534 338.238H0.0732422V270.157C12.7169 266.915 38.5879 257.902 40.9221 247.787C43.2563 237.672 30.872 215.692 24.388 205.966C29.8994 204.021 40.9221 197.602 40.9221 187.487C40.9221 177.372 13.6895 133.994 0.0732422 113.57H40.9221V98.0082C34.4381 96.3872 19.3306 94.1178 10.7718 98.0082C2.21294 101.899 20.8219 34.7896 31.1962 0.748901C36.0591 11.7716 47.3412 33.817 53.5658 33.817H68.1534H69.1273H83.7149C89.9395 33.817 101.222 11.7716 106.084 0.748901C116.459 34.7896 135.068 101.899 126.509 98.0082C117.95 94.1178 102.843 96.3872 96.3586 98.0082V113.57H137.207C123.591 133.994 96.3586 177.372 96.3586 187.487C96.3586 197.602 107.381 204.021 112.893 205.966C106.409 215.692 94.0243 237.672 96.3586 247.787C98.6928 257.902 124.564 266.915 137.207 270.157V338.238H69.1273H68.1534Z" fill="black"/>
</svg>
