<svg width="556" height="556" viewBox="0 0 556 556" fill="none" xmlns="http://www.w3.org/2000/svg">
<path fill-rule="evenodd" clip-rule="evenodd" d="M374.852 136.686C386.294 137.418 397.075 142.301 405.17 150.42C413.289 158.515 418.172 169.296 418.904 180.738C419.635 192.179 416.164 203.495 409.143 212.558C402.121 221.621 392.033 227.81 380.771 229.96C369.51 232.111 357.85 230.076 347.983 224.238L294.416 277.805L348.148 331.535C355.718 327.072 364.388 324.822 373.174 325.039C381.959 325.257 390.507 327.933 397.847 332.765C405.187 337.597 411.026 344.39 414.699 352.373C418.372 360.356 419.732 369.21 418.626 377.927C417.52 386.645 413.991 394.878 408.44 401.691C402.89 408.504 395.54 413.623 387.226 416.469C378.911 419.314 369.965 419.771 361.404 417.787C352.843 415.804 345.01 411.459 338.794 405.247C331.438 397.872 326.735 388.266 325.422 377.932C324.109 367.599 326.261 357.122 331.54 348.142L277.809 294.412L224.182 348.039C228.652 355.62 230.905 364.302 230.688 373.1C230.47 381.898 227.79 390.458 222.951 397.809C218.112 405.159 211.309 411.006 203.314 414.684C195.319 418.362 186.453 419.725 177.723 418.617C168.993 417.509 160.748 413.976 153.925 408.417C147.102 402.859 141.975 395.498 139.126 387.172C136.276 378.846 135.819 369.887 137.805 361.314C139.792 352.741 144.143 344.896 150.364 338.672C157.749 331.305 167.369 326.595 177.718 325.28C188.066 323.966 198.559 326.121 207.551 331.408L261.177 277.781L207.916 224.521C198.063 230.351 186.42 232.382 175.174 230.235C163.929 228.087 153.854 221.908 146.843 212.858C139.831 203.807 136.365 192.509 137.096 181.084C137.826 169.659 142.703 158.893 150.81 150.809C158.894 142.703 169.659 137.826 181.085 137.096C192.51 136.365 203.809 139.831 212.86 146.843C221.91 153.854 228.09 163.928 230.237 175.173C232.385 186.418 230.353 198.061 224.523 207.914L277.785 261.174L331.352 207.607C325.514 197.74 323.479 186.08 325.63 174.819C327.78 163.557 333.969 153.469 343.032 146.447C352.095 139.426 363.411 135.955 374.852 136.686ZM183.641 395.534C189.885 395.534 195.872 393.054 200.287 388.639V388.595C204.69 384.182 207.161 378.202 207.158 371.968C207.155 365.734 204.679 359.756 200.272 355.347C198.087 353.162 195.494 351.428 192.639 350.245C189.784 349.063 186.724 348.454 183.634 348.454C180.544 348.454 177.484 349.063 174.629 350.245C171.774 351.428 169.18 353.162 166.995 355.347C162.58 359.762 160.1 365.75 160.1 371.993C160.1 378.236 162.58 384.224 166.995 388.639C171.41 393.054 177.398 395.534 183.641 395.534ZM376.463 206.854C381.027 205.946 385.219 203.706 388.51 200.416L388.539 200.328C392.922 195.915 395.379 189.947 395.373 183.727C395.368 177.508 392.9 171.544 388.51 167.139C385.219 163.849 381.027 161.609 376.463 160.702C371.899 159.794 367.169 160.26 362.87 162.041C358.571 163.822 354.897 166.838 352.312 170.707C349.727 174.576 348.347 179.125 348.347 183.778C348.347 188.431 349.727 192.979 352.312 196.848C354.897 200.717 358.571 203.733 362.87 205.514C367.169 207.295 371.899 207.761 376.463 206.854ZM395.576 372.018C395.576 365.783 393.099 359.804 388.691 355.396H388.646C384.24 351 378.268 348.532 372.043 348.535C365.818 348.538 359.849 351.011 355.446 355.411C353.264 357.592 351.533 360.183 350.352 363.033C349.171 365.884 348.563 368.94 348.563 372.025C348.563 375.111 349.171 378.166 350.352 381.017C351.533 383.868 353.264 386.458 355.446 388.64C359.854 393.048 365.834 395.525 372.068 395.525C378.303 395.525 384.282 393.048 388.691 388.64C393.099 384.231 395.576 378.252 395.576 372.018ZM207.164 179.475C206.258 174.918 204.021 170.732 200.735 167.446L200.647 167.417C196.241 163.04 190.281 160.587 184.07 160.592C177.86 160.598 171.904 163.062 167.505 167.446C164.22 170.732 161.983 174.918 161.077 179.475C160.171 184.032 160.637 188.756 162.415 193.049C164.193 197.341 167.205 201.01 171.068 203.591C174.932 206.173 179.474 207.55 184.12 207.55C188.767 207.55 193.309 206.173 197.173 203.591C201.036 201.01 204.047 197.341 205.826 193.049C207.604 188.756 208.07 184.032 207.164 179.475Z" fill="black" fill-opacity="0.3"/>
</svg>
