<svg width="556" height="556" viewBox="0 0 556 556" fill="none" xmlns="http://www.w3.org/2000/svg">
<path d="M180.078 134.502C170.945 134.489 162.121 137.811 155.264 143.844C148.407 149.877 143.988 158.206 142.838 167.266C141.688 176.327 143.886 185.496 149.018 193.051C154.15 200.606 161.864 206.028 170.711 208.297L170.713 347.77C162.669 349.858 155.545 354.554 150.456 361.123C145.368 367.693 142.602 375.765 142.592 384.075C142.594 391.086 144.561 397.955 148.272 403.904C151.982 409.852 157.286 414.641 163.581 417.726C169.877 420.811 176.911 422.069 183.885 421.357C190.86 420.645 197.494 417.991 203.036 413.698C208.578 409.404 212.805 403.642 215.236 397.067C217.667 390.491 218.206 383.366 216.791 376.5C215.376 369.633 212.064 363.301 207.231 358.223C202.397 353.145 196.237 349.523 189.449 347.77L189.447 208.298C198.294 206.028 206.008 200.607 211.14 193.052C216.272 185.497 218.469 176.328 217.318 167.267C216.168 158.207 211.749 149.878 204.892 143.845C198.035 137.812 189.211 134.49 180.078 134.502ZM198.859 384.101C198.859 389.074 196.884 393.844 193.367 397.361C189.85 400.878 185.08 402.854 180.106 402.854C175.133 402.854 170.363 400.878 166.846 397.361C163.329 393.844 161.353 389.074 161.353 384.1C161.353 381.639 161.837 379.201 162.779 376.927C163.721 374.652 165.102 372.586 166.842 370.845C168.583 369.104 170.65 367.724 172.924 366.782C175.198 365.84 177.636 365.355 180.098 365.356C185.064 365.357 189.826 367.33 193.339 370.839C196.852 374.349 198.828 379.11 198.835 384.076L198.859 384.101ZM198.857 172.05C198.856 175.757 197.757 179.381 195.697 182.462C193.637 185.544 190.71 187.946 187.286 189.365C183.861 190.783 180.093 191.154 176.457 190.43C172.821 189.707 169.482 187.922 166.861 185.301C164.24 182.68 162.455 179.34 161.731 175.705C161.008 172.069 161.379 168.301 162.797 164.876C164.215 161.451 166.617 158.524 169.699 156.465C172.781 154.405 176.405 153.306 180.111 153.305C185.066 153.313 189.815 155.283 193.322 158.783C196.828 162.284 198.806 167.03 198.823 171.984L198.857 172.05Z" fill="black" fill-opacity="0.3"/>
<path d="M278.203 134.502C269.07 134.489 260.246 137.811 253.389 143.844C246.532 149.877 242.113 158.206 240.963 167.266C239.813 176.327 242.011 185.496 247.143 193.051C252.275 200.606 259.989 206.028 268.836 208.297L268.838 347.77C260.794 349.858 253.67 354.554 248.581 361.123C243.493 367.693 240.727 375.765 240.717 384.075C240.719 391.086 242.686 397.955 246.397 403.904C250.107 409.852 255.411 414.641 261.706 417.726C268.002 420.811 275.036 422.069 282.01 421.357C288.985 420.645 295.619 417.991 301.161 413.698C306.703 409.404 310.93 403.642 313.361 397.067C315.792 390.491 316.331 383.366 314.916 376.5C313.501 369.633 310.189 363.301 305.356 358.223C300.522 353.145 294.362 349.523 287.574 347.77L287.572 208.298C296.419 206.028 304.133 200.607 309.265 193.052C314.397 185.497 316.594 176.328 315.443 167.267C314.293 158.207 309.874 149.878 303.017 143.845C296.16 137.812 287.336 134.49 278.203 134.502ZM296.984 384.101C296.984 389.074 295.009 393.844 291.492 397.361C287.975 400.878 283.205 402.854 278.231 402.854C273.258 402.854 268.488 400.878 264.971 397.361C261.454 393.844 259.478 389.074 259.478 384.1C259.478 381.639 259.962 379.201 260.904 376.927C261.846 374.652 263.227 372.586 264.967 370.845C266.708 369.104 268.775 367.724 271.049 366.782C273.323 365.84 275.761 365.355 278.223 365.356C283.189 365.357 287.951 367.33 291.464 370.839C294.977 374.349 296.953 379.11 296.96 384.076L296.984 384.101ZM296.982 172.05C296.981 175.757 295.882 179.381 293.822 182.462C291.762 185.544 288.835 187.946 285.411 189.365C281.986 190.783 278.218 191.154 274.582 190.43C270.946 189.707 267.607 187.922 264.986 185.301C262.365 182.68 260.58 179.34 259.856 175.705C259.133 172.069 259.504 168.301 260.922 164.876C262.34 161.451 264.742 158.524 267.824 156.465C270.906 154.405 274.53 153.306 278.236 153.305C283.191 153.313 287.94 155.283 291.447 158.783C294.953 162.284 296.931 167.03 296.948 171.984L296.982 172.05Z" fill="black" fill-opacity="0.3"/>
<path d="M376.328 134.502C367.195 134.489 358.371 137.811 351.514 143.844C344.657 149.877 340.238 158.206 339.088 167.266C337.938 176.327 340.136 185.496 345.268 193.051C350.4 200.606 358.114 206.028 366.961 208.297L366.963 347.77C358.919 349.858 351.795 354.554 346.706 361.123C341.618 367.693 338.852 375.765 338.842 384.075C338.844 391.086 340.811 397.955 344.522 403.904C348.232 409.852 353.536 414.641 359.831 417.726C366.127 420.811 373.161 422.069 380.135 421.357C387.11 420.645 393.744 417.991 399.286 413.698C404.828 409.404 409.055 403.642 411.486 397.067C413.917 390.491 414.456 383.366 413.041 376.5C411.626 369.633 408.314 363.301 403.481 358.223C398.647 353.145 392.487 349.523 385.699 347.77L385.697 208.298C394.544 206.028 402.258 200.607 407.39 193.052C412.522 185.497 414.719 176.328 413.568 167.267C412.418 158.207 407.999 149.878 401.142 143.845C394.285 137.812 385.461 134.49 376.328 134.502ZM395.109 384.101C395.109 389.074 393.134 393.844 389.617 397.361C386.1 400.878 381.33 402.854 376.356 402.854C371.383 402.854 366.613 400.878 363.096 397.361C359.579 393.844 357.603 389.074 357.603 384.1C357.603 381.639 358.087 379.201 359.029 376.927C359.971 374.652 361.352 372.586 363.092 370.845C364.833 369.104 366.9 367.724 369.174 366.782C371.448 365.84 373.886 365.355 376.348 365.356C381.314 365.357 386.076 367.33 389.589 370.839C393.102 374.349 395.078 379.11 395.085 384.076L395.109 384.101ZM395.107 172.05C395.106 175.757 394.007 179.381 391.947 182.462C389.887 185.544 386.96 187.946 383.536 189.365C380.111 190.783 376.343 191.154 372.707 190.43C369.071 189.707 365.732 187.922 363.111 185.301C360.49 182.68 358.705 179.34 357.981 175.705C357.258 172.069 357.629 168.301 359.047 164.876C360.465 161.451 362.867 158.524 365.949 156.465C369.031 154.405 372.655 153.306 376.361 153.305C381.316 153.313 386.065 155.283 389.572 158.783C393.078 162.284 395.056 167.03 395.073 171.984L395.107 172.05Z" fill="black" fill-opacity="0.3"/>
</svg>
