<svg width="556" height="556" viewBox="0 0 556 556" fill="none" xmlns="http://www.w3.org/2000/svg">
<path d="M405.17 150.42C397.075 142.301 386.294 137.418 374.852 136.686C363.411 135.955 352.095 139.426 343.032 146.447C333.969 153.469 327.78 163.557 325.63 174.819C323.479 186.08 325.514 197.74 331.352 207.607L207.551 331.408C198.559 326.121 188.066 323.966 177.718 325.28C167.369 326.595 157.749 331.305 150.364 338.672C144.143 344.896 139.792 352.741 137.805 361.314C135.819 369.887 136.276 378.846 139.126 387.172C141.975 395.498 147.102 402.859 153.925 408.417C160.748 413.976 168.993 417.509 177.723 418.617C186.453 419.725 195.319 418.362 203.314 414.684C211.309 411.006 218.112 405.159 222.951 397.809C227.79 390.458 230.47 381.898 230.688 373.1C230.905 364.302 228.652 355.62 224.182 348.039L347.983 224.238C357.85 230.076 369.51 232.111 380.771 229.96C392.033 227.81 402.121 221.621 409.143 212.558C416.164 203.495 419.635 192.179 418.904 180.738C418.172 169.296 413.289 158.515 405.17 150.42ZM200.287 388.639C195.872 393.054 189.885 395.534 183.641 395.534C177.398 395.534 171.41 393.054 166.995 388.639C162.58 384.224 160.1 378.236 160.1 371.993C160.1 365.75 162.58 359.762 166.995 355.347C169.18 353.162 171.774 351.428 174.629 350.245C177.484 349.063 180.544 348.454 183.634 348.454C186.724 348.454 189.784 349.063 192.639 350.245C195.494 351.428 198.087 353.162 200.272 355.347C204.679 359.756 207.155 365.734 207.158 371.968C207.161 378.202 204.69 384.182 200.287 388.595V388.639ZM388.51 200.416C385.219 203.706 381.027 205.946 376.463 206.854C371.899 207.761 367.169 207.295 362.87 205.514C358.571 203.733 354.897 200.717 352.312 196.848C349.727 192.979 348.347 188.431 348.347 183.778C348.347 179.125 349.727 174.576 352.312 170.707C354.897 166.838 358.571 163.822 362.87 162.041C367.169 160.26 371.899 159.794 376.463 160.702C381.027 161.609 385.219 163.849 388.51 167.139C392.9 171.544 395.368 177.508 395.373 183.727C395.379 189.947 392.922 195.915 388.539 200.328L388.51 200.416Z" fill="black" fill-opacity="0.3"/>
</svg>
